ffmpeg version 8.1.1-full_build-www.gyan.dev Copyright (c) 2000-2026 the FFmpeg developers
  built with gcc 15.2.0 (Rev13, Built by MSYS2 project)
  configuration: --enable-gpl --enable-version3 --enable-static --disable-w32threads --disable-autodetect --enable-cairo --enable-fontconfig --enable-iconv --enable-gnutls --enable-lcms2 --enable-libxml2 --enable-gmp --enable-bzlib --enable-lzma --enable-libsnappy --enable-zlib --enable-librist --enable-libsrt --enable-libssh --enable-libzmq --enable-avisynth --enable-libbluray --enable-libcaca --enable-libdvdnav --enable-libdvdread --enable-sdl2 --enable-libaribb24 --enable-libaribcaption --enable-libdav1d --enable-libdavs2 --enable-libopenjpeg --enable-libquirc --enable-libuavs3d --enable-libxevd --enable-libzvbi --enable-liboapv --enable-libqrencode --enable-librav1e --enable-libsvtav1 --enable-libvvenc --enable-libwebp --enable-libx264 --enable-libx265 --enable-libxavs2 --enable-libxeve --enable-libxvid --enable-libaom --enable-libjxl --enable-libsvtjpegxs --enable-libvpx --enable-mediafoundation --enable-libass --enable-frei0r --enable-libfreetype --enable-libfribidi --enable-libharfbuzz --enable-liblensfun --enable-libvidstab --enable-libvmaf --enable-libzimg --enable-amf --enable-cuda-llvm --enable-cuvid --enable-dxva2 --enable-d3d11va --enable-d3d12va --enable-ffnvcodec --enable-libvpl --enable-nvdec --enable-nvenc --enable-vaapi --enable-libshaderc --enable-vulkan --enable-libplacebo --enable-opencl --enable-libcdio --enable-openal --enable-libgme --enable-libmodplug --enable-libopenmpt --enable-libopencore-amrwb --enable-libmp3lame --enable-libshine --enable-libtheora --enable-libtwolame --enable-libvo-amrwbenc --enable-libcodec2 --enable-libilbc --enable-libgsm --enable-liblc3 --enable-libopencore-amrnb --enable-libopus --enable-libspeex --enable-libvorbis --enable-ladspa --enable-libbs2b --enable-libflite --enable-libmysofa --enable-librubberband --enable-libsoxr --enable-chromaprint --enable-whisper
  libavutil      60. 26.101 / 60. 26.101
  libavcodec     62. 28.101 / 62. 28.101
  libavformat    62. 12.101 / 62. 12.101
  libavdevice    62.  3.101 / 62.  3.101
  libavfilter    11. 14.101 / 11. 14.101
  libswscale      9.  5.101 /  9.  5.101
  libswresample   6.  3.101 /  6.  3.101
[in#0 @ 000001db341f0e80] Capturing whole desktop as 1920x1080x32 at (-1920,-115)
[in#0/gdigrab @ 000001db341f0e80] Stream #0: not enough frames to estimate rate; consider increasing probesize
Input #0, gdigrab, from 'desktop':
  Duration: N/A, start: 1784202935.157591, bitrate: 1990668 kb/s
  Stream #0:0: Video: bmp, bgra, 1920x1080, 1990668 kb/s, 30 fps, 1000k tbr, 1000k tbn, start 1784202935.157591
Stream mapping:
  Stream #0:0 -> #0:0 (bmp (native) -> h264 (libx264))
Press [q] to stop, [?] for help
[libx264 @ 000001db3428e200] using cpu capabilities: MMX2 SSE2Fast SSSE3 SSE4.2 AVX FMA3 BMI2 AVX2 AVX512
[libx264 @ 000001db3428e200] profile Constrained Baseline, level 4.0, 4:2:0, 8-bit
[libx264 @ 000001db3428e200] 264 - core 165 r3223 0480cb0 - H.264/MPEG-4 AVC codec - Copyleft 2003-2025 - http://www.videolan.org/x264.html - options: cabac=0 ref=1 deblock=0:0:0 analyse=0:0 me=dia subme=0 psy=1 psy_rd=1.00:0.00 mixed_ref=0 me_range=16 chroma_me=1 trellis=0 8x8dct=0 cqm=0 deadzone=21,11 fast_pskip=1 chroma_qp_offset=0 threads=18 lookahead_threads=3 sliced_threads=0 nr=0 decimate=1 interlaced=0 bluray_compat=0 constrained_intra=0 bframes=0 weightp=0 keyint=250 keyint_min=25 scenecut=0 intra_refresh=0 rc=crf mbtree=0 crf=18.0 qcomp=0.60 qpmin=0 qpmax=69 qpstep=4 ip_ratio=1.40 aq=0
Output #0, mp4, to 'C:\Users\rjpen\OneDrive\Documents\GitHub\AAC-Editor\videos\td-snap-page-builder-live-world-cup-promo\capture\live-side-by-side-retry.mp4':
  Metadata:
    encoder         : Lavf62.12.101
  Stream #0:0: Video: h264 (avc1 / 0x31637661), yuv420p(tv, progressive), 1920x1080, q=2-31, 30 fps, 15360 tbn
    Metadata:
      encoder         : Lavc62.28.101 libx264
    Side data:
      CPB properties: bitrate max/min/avg: 0/0/0 buffer size: 0 vbv_delay: N/A
frame=    0 fps=0.0 q=0.0 size=       0KiB time=N/A bitrate=N/A speed=N/A elapsed=0:00:00.51    frame=   10 fps=9.6 q=8.0 size=     512KiB time=00:00:00.33 bitrate=12584.1kbits/s speed=0.32x elapsed=0:00:01.04    frame=   25 fps= 16 q=8.0 size=     512KiB time=00:00:00.90 bitrate=4660.8kbits/s speed=0.574x elapsed=0:00:01.56    frame=   40 fps= 19 q=8.0 size=     512KiB time=00:00:01.43 bitrate=2926.5kbits/s dup=0 drop=1 speed=0.688x elapsed=0:00:02.08    frame=   55 fps= 21 q=8.0 size=     512KiB time=00:00:01.96 bitrate=2132.9kbits/s dup=0 drop=1 speed=0.756x elapsed=0:00:02.60    frame=   69 fps= 22 q=8.0 size=     512KiB time=00:00:02.46 bitrate=1700.5kbits/s dup=0 drop=2 speed=0.793x elapsed=0:00:03.10    frame=   85 fps= 23 q=8.0 size=     512KiB time=00:00:03.00 bitrate=1398.2kbits/s dup=0 drop=2 speed=0.826x elapsed=0:00:03.63    frame=  100 fps= 24 q=8.0 size=     512KiB time=00:00:03.50 bitrate=1198.5kbits/s dup=0 drop=2 speed=0.843x elapsed=0:00:04.15    frame=  115 fps= 25 q=8.0 size=     512KiB time=00:00:04.00 bitrate=1048.7kbits/s dup=0 drop=3 speed=0.856x elapsed=0:00:04.67    frame=  130 fps= 25 q=8.0 size=     512KiB time=00:00:04.53 bitrate= 925.3kbits/s dup=0 drop=4 speed=0.874x elapsed=0:00:05.18    frame=  146 fps= 26 q=8.0 size=     512KiB time=00:00:05.10 bitrate= 822.5kbits/s dup=0 drop=4 speed=0.893x elapsed=0:00:05.70    frame=  161 fps= 26 q=8.0 size=     512KiB time=00:00:05.60 bitrate= 749.1kbits/s dup=0 drop=4 speed= 0.9x elapsed=0:00:06.22    frame=  176 fps= 26 q=8.0 size=     512KiB time=00:00:06.10 bitrate= 687.7kbits/s dup=0 drop=4 speed=0.906x elapsed=0:00:06.73    frame=  192 fps= 26 q=8.0 size=     512KiB time=00:00:06.63 bitrate= 632.4kbits/s dup=0 drop=4 speed=0.914x elapsed=0:00:07.26    frame=  207 fps= 27 q=8.0 size=     512KiB time=00:00:07.13 bitrate= 588.0kbits/s dup=0 drop=5 speed=0.916x elapsed=0:00:07.78    frame=  222 fps= 27 q=8.0 size=     512KiB time=00:00:07.66 bitrate= 547.1kbits/s dup=0 drop=6 speed=0.924x elapsed=0:00:08.30    frame=  234 fps= 27 q=5.0 size=     512KiB time=00:00:08.10 bitrate= 517.9kbits/s dup=0 drop=8 speed=0.919x elapsed=0:00:08.80    frame=  250 fps= 27 q=8.0 size=     512KiB time=00:00:08.70 bitrate= 482.1kbits/s dup=0 drop=8 speed=0.933x elapsed=0:00:09.32    frame=  264 fps= 27 q=8.0 size=    1024KiB time=00:00:09.16 bitrate= 915.2kbits/s dup=0 drop=8 speed=0.931x elapsed=0:00:09.84    frame=  279 fps= 27 q=8.0 size=    1024KiB time=00:00:09.70 bitrate= 864.8kbits/s dup=0 drop=10 speed=0.936x elapsed=0:00:10.36    frame=  294 fps= 27 q=8.0 size=    1024KiB time=00:00:10.23 bitrate= 819.8kbits/s dup=0 drop=10 speed=0.941x elapsed=0:00:10.87    frame=  309 fps= 27 q=7.0 size=    1024KiB time=00:00:10.73 bitrate= 781.6kbits/s dup=0 drop=10 speed=0.942x elapsed=0:00:11.39    frame=  323 fps= 27 q=8.0 size=    1024KiB time=00:00:11.23 bitrate= 746.8kbits/s dup=0 drop=11 speed=0.943x elapsed=0:00:11.90    frame=  339 fps= 27 q=8.0 size=    1024KiB time=00:00:11.80 bitrate= 710.9kbits/s dup=0 drop=11 speed=0.95x elapsed=0:00:12.42    frame=  353 fps= 27 q=8.0 size=    1024KiB time=00:00:12.26 bitrate= 683.9kbits/s dup=0 drop=12 speed=0.948x elapsed=0:00:12.93    frame=  369 fps= 27 q=8.0 size=    1024KiB time=00:00:12.83 bitrate= 653.7kbits/s dup=0 drop=12 speed=0.954x elapsed=0:00:13.45    frame=  383 fps= 27 q=8.0 size=    1024KiB time=00:00:13.30 bitrate= 630.8kbits/s dup=0 drop=13 speed=0.952x elapsed=0:00:13.96    frame=  398 fps= 27 q=8.0 size=    1024KiB time=00:00:13.83 bitrate= 606.4kbits/s dup=0 drop=14 speed=0.955x elapsed=0:00:14.48    frame=  412 fps= 27 q=8.0 size=    1024KiB time=00:00:14.33 bitrate= 585.3kbits/s dup=0 drop=15 speed=0.955x elapsed=0:00:15.00    frame=  427 fps= 28 q=8.0 size=    1024KiB time=00:00:14.86 bitrate= 564.3kbits/s dup=0 drop=16 speed=0.958x elapsed=0:00:15.52    frame=  441 fps= 27 q=7.0 size=    1024KiB time=00:00:15.36 bitrate= 545.9kbits/s dup=0 drop=18 speed=0.957x elapsed=0:00:16.05    frame=  456 fps= 27 q=8.0 size=    1024KiB time=00:00:15.93 bitrate= 526.5kbits/s dup=0 drop=19 speed=0.961x elapsed=0:00:16.58    frame=  470 fps= 27 q=7.0 size=    1024KiB time=00:00:16.43 bitrate= 510.5kbits/s dup=0 drop=20 speed=0.961x elapsed=0:00:17.10    frame=  485 fps= 28 q=20.0 size=    1024KiB time=00:00:16.96 bitrate= 494.4kbits/s dup=0 drop=21 speed=0.964x elapsed=0:00:17.60    frame=  500 fps= 28 q=8.0 size=    1024KiB time=00:00:17.50 bitrate= 479.4kbits/s dup=0 drop=22 speed=0.965x elapsed=0:00:18.13    frame=  514 fps= 28 q=8.0 size=    1536KiB time=00:00:18.00 bitrate= 699.1kbits/s dup=0 drop=23 speed=0.965x elapsed=0:00:18.65    frame=  530 fps= 28 q=8.0 size=    1536KiB time=00:00:18.56 bitrate= 677.7kbits/s dup=0 drop=23 speed=0.969x elapsed=0:00:19.17    frame=  544 fps= 28 q=9.0 size=    1536KiB time=00:00:19.03 bitrate= 661.1kbits/s dup=0 drop=23 speed=0.967x elapsed=0:00:19.68    frame=  559 fps= 28 q=8.0 size=    1536KiB time=00:00:19.53 bitrate= 644.2kbits/s dup=0 drop=24 speed=0.967x elapsed=0:00:20.20    frame=  574 fps= 28 q=8.0 size=    1792KiB time=00:00:20.06 bitrate= 731.6kbits/s dup=0 drop=25 speed=0.969x elapsed=0:00:20.71    frame=  588 fps= 28 q=8.0 size=    1792KiB time=00:00:20.56 bitrate= 713.8kbits/s dup=0 drop=26 speed=0.969x elapsed=0:00:21.23    frame=  602 fps= 28 q=8.0 size=    1792KiB time=00:00:21.10 bitrate= 695.8kbits/s dup=0 drop=26 speed=0.97x elapsed=0:00:21.75    frame=  617 fps= 28 q=8.0 size=    1792KiB time=00:00:21.63 bitrate= 678.6kbits/s dup=0 drop=27 speed=0.971x elapsed=0:00:22.26    frame=  632 fps= 28 q=8.0 size=    1792KiB time=00:00:22.16 bitrate= 662.3kbits/s dup=0 drop=28 speed=0.973x elapsed=0:00:22.78    frame=  648 fps= 28 q=8.0 size=    1792KiB time=00:00:22.70 bitrate= 646.7kbits/s dup=0 drop=28 speed=0.974x elapsed=0:00:23.30    frame=  663 fps= 28 q=8.0 size=    1792KiB time=00:00:23.20 bitrate= 632.8kbits/s dup=0 drop=29 speed=0.973x elapsed=0:00:23.83    frame=  677 fps= 28 q=8.0 size=    1792KiB time=00:00:23.70 bitrate= 619.4kbits/s dup=0 drop=30 speed=0.973x elapsed=0:00:24.34    frame=  692 fps= 28 q=8.0 size=    1792KiB time=00:00:24.23 bitrate= 605.8kbits/s dup=0 drop=30 speed=0.975x elapsed=0:00:24.85    frame=  708 fps= 28 q=8.0 size=    1792KiB time=00:00:24.76 bitrate= 592.8kbits/s dup=0 drop=30 speed=0.976x elapsed=0:00:25.38    frame=  723 fps= 28 q=8.0 size=    1792KiB time=00:00:25.26 bitrate= 581.0kbits/s dup=0 drop=30 speed=0.976x elapsed=0:00:25.88    frame=  738 fps= 28 q=13.0 size=    1792KiB time=00:00:25.76 bitrate= 569.7kbits/s dup=0 drop=30 speed=0.976x elapsed=0:00:26.40    frame=  752 fps= 28 q=8.0 size=    2304KiB time=00:00:26.23 bitrate= 719.5kbits/s dup=0 drop=31 speed=0.975x elapsed=0:00:26.91    frame=  766 fps= 28 q=8.0 size=    2304KiB time=00:00:26.73 bitrate= 706.0kbits/s dup=0 drop=33 speed=0.974x elapsed=0:00:27.44    frame=  781 fps= 28 q=8.0 size=    2304KiB time=00:00:27.30 bitrate= 691.4kbits/s dup=0 drop=35 speed=0.976x elapsed=0:00:27.97    frame=  795 fps= 28 q=8.0 size=    2304KiB time=00:00:27.83 bitrate= 678.1kbits/s dup=0 drop=36 speed=0.977x elapsed=0:00:28.48    frame=  810 fps= 28 q=8.0 size=    2304KiB time=00:00:28.36 bitrate= 665.4kbits/s dup=0 drop=36 speed=0.978x elapsed=0:00:28.99    frame=  824 fps= 28 q=9.0 size=    2304KiB time=00:00:28.83 bitrate= 654.6kbits/s dup=0 drop=36 speed=0.977x elapsed=0:00:29.52    frame=  838 fps= 28 q=8.0 size=    2304KiB time=00:00:29.33 bitrate= 643.5kbits/s dup=0 drop=36 speed=0.977x elapsed=0:00:30.03    frame=  852 fps= 28 q=8.0 size=    2304KiB time=00:00:29.86 bitrate= 632.0kbits/s dup=0 drop=37 speed=0.977x elapsed=0:00:30.55    frame=  866 fps= 28 q=8.0 size=    2304KiB time=00:00:30.36 bitrate= 621.6kbits/s dup=0 drop=38 speed=0.978x elapsed=0:00:31.06    frame=  881 fps= 28 q=8.0 size=    2304KiB time=00:00:30.96 bitrate= 609.5kbits/s dup=0 drop=39 speed=0.981x elapsed=0:00:31.58    frame=  896 fps= 28 q=8.0 size=    2304KiB time=00:00:31.46 bitrate= 599.8kbits/s dup=0 drop=39 speed=0.98x elapsed=0:00:32.09    frame=  910 fps= 28 q=8.0 size=    2304KiB time=00:00:31.93 bitrate= 591.1kbits/s dup=0 drop=40 speed=0.979x elapsed=0:00:32.61    frame=  925 fps= 28 q=8.0 size=    2304KiB time=00:00:32.46 bitrate= 581.4kbits/s dup=0 drop=41 speed=0.98x elapsed=0:00:33.12    frame=  941 fps= 28 q=8.0 size=    2304KiB time=00:00:33.03 bitrate= 571.4kbits/s dup=0 drop=41 speed=0.982x elapsed=0:00:33.65    frame=  955 fps= 28 q=8.0 size=    2304KiB time=00:00:33.50 bitrate= 563.4kbits/s dup=0 drop=43 speed=0.98x elapsed=0:00:34.18    frame=  970 fps= 28 q=8.0 size=    2304KiB time=00:00:34.06 bitrate= 554.1kbits/s dup=0 drop=43 speed=0.982x elapsed=0:00:34.69    frame=  986 fps= 28 q=17.0 size=    2304KiB time=00:00:34.60 bitrate= 545.5kbits/s dup=0 drop=43 speed=0.983x elapsed=0:00:35.21    frame= 1002 fps= 28 q=8.0 size=    2816KiB time=00:00:35.13 bitrate= 656.6kbits/s dup=0 drop=43 speed=0.983x elapsed=0:00:35.74    frame= 1016 fps= 28 q=8.0 size=    2816KiB time=00:00:35.60 bitrate= 648.0kbits/s dup=0 drop=44 speed=0.982x elapsed=0:00:36.26    frame= 1032 fps= 28 q=8.0 size=    2816KiB time=00:00:36.16 bitrate= 637.9kbits/s dup=0 drop=44 speed=0.983x elapsed=0:00:36.78    frame= 1045 fps= 28 q=8.0 size=    2816KiB time=00:00:36.60 bitrate= 630.3kbits/s dup=0 drop=46 speed=0.981x elapsed=0:00:37.29    frame= 1060 fps= 28 q=8.0 size=    2816KiB time=00:00:37.16 bitrate= 620.7kbits/s dup=0 drop=47 speed=0.983x elapsed=0:00:37.81    frame= 1073 fps= 28 q=8.0 size=    2816KiB time=00:00:37.63 bitrate= 613.0kbits/s dup=0 drop=49 speed=0.982x elapsed=0:00:38.33    frame= 1089 fps= 28 q=8.0 size=    2816KiB time=00:00:38.23 bitrate= 603.4kbits/s dup=0 drop=49 speed=0.984x elapsed=0:00:38.84    frame= 1104 fps= 28 q=8.0 size=    2816KiB time=00:00:38.73 bitrate= 595.6kbits/s dup=0 drop=49 speed=0.984x elapsed=0:00:39.35    frame= 1119 fps= 28 q=8.0 size=    2816KiB time=00:00:39.23 bitrate= 588.0kbits/s dup=0 drop=50 speed=0.984x elapsed=0:00:39.87    frame= 1134 fps= 28 q=8.0 size=    2816KiB time=00:00:39.73 bitrate= 580.6kbits/s dup=0 drop=50 speed=0.984x elapsed=0:00:40.39    frame= 1149 fps= 28 q=8.0 size=    2816KiB time=00:00:40.26 bitrate= 572.9kbits/s dup=0 drop=50 speed=0.984x elapsed=0:00:40.91    frame= 1163 fps= 28 q=8.0 size=    2816KiB time=00:00:40.73 bitrate= 566.3kbits/s dup=0 drop=51 speed=0.983x elapsed=0:00:41.44    frame= 1177 fps= 28 q=8.0 size=    2816KiB time=00:00:41.30 bitrate= 558.6kbits/s dup=0 drop=51 speed=0.984x elapsed=0:00:41.95    frame= 1193 fps= 28 q=8.0 size=    2816KiB time=00:00:41.86 bitrate= 551.0kbits/s dup=0 drop=52 speed=0.986x elapsed=0:00:42.47    frame= 1209 fps= 28 q=8.0 size=    2816KiB time=00:00:42.40 bitrate= 544.1kbits/s dup=0 drop=52 speed=0.986x elapsed=0:00:43.00    frame= 1223 fps= 28 q=8.0 size=    2816KiB time=00:00:42.86 bitrate= 538.2kbits/s dup=0 drop=53 speed=0.985x elapsed=0:00:43.53    frame= 1240 fps= 28 q=10.0 size=    2816KiB time=00:00:43.46 bitrate= 530.7kbits/s dup=0 drop=53 speed=0.987x elapsed=0:00:44.05    frame= 1254 fps= 28 q=8.0 size=    3328KiB time=00:00:43.93 bitrate= 620.6kbits/s dup=0 drop=53 speed=0.986x elapsed=0:00:44.57    frame= 1268 fps= 28 q=8.0 size=    3328KiB time=00:00:44.40 bitrate= 614.0kbits/s dup=0 drop=54 speed=0.985x elapsed=0:00:45.08    frame= 1283 fps= 28 q=8.0 size=    3328KiB time=00:00:44.93 bitrate= 606.8kbits/s dup=0 drop=55 speed=0.985x elapsed=0:00:45.60    frame= 1297 fps= 28 q=7.0 size=    3328KiB time=00:00:45.43 bitrate= 600.1kbits/s dup=0 drop=57 speed=0.985x elapsed=0:00:46.12    frame= 1312 fps= 28 q=8.0 size=    3328KiB time=00:00:46.00 bitrate= 592.7kbits/s dup=0 drop=58 speed=0.986x elapsed=0:00:46.64    frame= 1326 fps= 28 q=8.0 size=    3328KiB time=00:00:46.50 bitrate= 586.3kbits/s dup=0 drop=59 speed=0.986x elapsed=0:00:47.15    frame= 1340 fps= 28 q=8.0 size=    3328KiB time=00:00:46.96 bitrate= 580.5kbits/s dup=0 drop=61 speed=0.985x elapsed=0:00:47.67    frame= 1356 fps= 28 q=8.0 size=    3328KiB time=00:00:47.56 bitrate= 573.2kbits/s dup=0 drop=61 speed=0.987x elapsed=0:00:48.21    frame= 1371 fps= 28 q=8.0 size=    3328KiB time=00:00:48.10 bitrate= 566.8kbits/s dup=0 drop=61 speed=0.987x elapsed=0:00:48.73    frame= 1386 fps= 28 q=8.0 size=    3328KiB time=00:00:48.60 bitrate= 561.0kbits/s dup=0 drop=63 speed=0.987x elapsed=0:00:49.25    frame= 1399 fps= 28 q=7.0 size=    3328KiB time=00:00:49.06 bitrate= 555.6kbits/s dup=0 drop=64 speed=0.986x elapsed=0:00:49.78    frame= 1414 fps= 28 q=8.0 size=    3328KiB time=00:00:49.63 bitrate= 549.3kbits/s dup=0 drop=65 speed=0.987x elapsed=0:00:50.29    frame= 1429 fps= 28 q=8.0 size=    3328KiB time=00:00:50.16 bitrate= 543.5kbits/s dup=0 drop=66 speed=0.987x elapsed=0:00:50.82    frame= 1443 fps= 28 q=8.0 size=    3328KiB time=00:00:50.66 bitrate= 538.1kbits/s dup=0 drop=66 speed=0.987x elapsed=0:00:51.35    frame= 1458 fps= 28 q=8.0 size=    3328KiB time=00:00:51.20 bitrate= 532.5kbits/s dup=0 drop=67 speed=0.987x elapsed=0:00:51.86    frame= 1473 fps= 28 q=8.0 size=    3328KiB time=00:00:51.73 bitrate= 527.0kbits/s dup=0 drop=67 speed=0.988x elapsed=0:00:52.37    frame= 1487 fps= 28 q=15.0 size=    3328KiB time=00:00:52.20 bitrate= 522.3kbits/s dup=0 drop=69 speed=0.987x elapsed=0:00:52.89    frame= 1502 fps= 28 q=8.0 size=    3840KiB time=00:00:52.73 bitrate= 596.5kbits/s dup=0 drop=70 speed=0.987x elapsed=0:00:53.40    frame= 1515 fps= 28 q=8.0 size=    3840KiB time=00:00:53.23 bitrate= 590.9kbits/s dup=0 drop=72 speed=0.987x elapsed=0:00:53.92    frame= 1530 fps= 28 q=8.0 size=    3840KiB time=00:00:53.76 bitrate= 585.1kbits/s dup=0 drop=73 speed=0.988x elapsed=0:00:54.44    frame= 1544 fps= 28 q=8.0 size=    3840KiB time=00:00:54.30 bitrate= 579.3kbits/s dup=0 drop=73 speed=0.988x elapsed=0:00:54.95    frame= 1559 fps= 28 q=8.0 size=    3840KiB time=00:00:54.80 bitrate= 574.0kbits/s dup=0 drop=74 speed=0.988x elapsed=0:00:55.46    frame= 1573 fps= 28 q=7.0 size=    3840KiB time=00:00:55.33 bitrate= 568.5kbits/s dup=0 drop=75 speed=0.988x elapsed=0:00:55.99    frame= 1588 fps= 28 q=8.0 size=    3840KiB time=00:00:55.83 bitrate= 563.4kbits/s dup=0 drop=77 speed=0.988x elapsed=0:00:56.51    frame= 1604 fps= 28 q=11.0 size=    3840KiB time=00:00:56.43 bitrate= 557.4kbits/s dup=0 drop=77 speed=0.989x elapsed=0:00:57.03    frame= 1619 fps= 28 q=8.0 size=    4096KiB time=00:00:56.93 bitrate= 589.4kbits/s dup=0 drop=77 speed=0.989x elapsed=0:00:57.56    frame= 1635 fps= 28 q=8.0 size=    4096KiB time=00:00:57.46 bitrate= 583.9kbits/s dup=0 drop=77 speed=0.99x elapsed=0:00:58.07    frame= 1649 fps= 28 q=8.0 size=    4096KiB time=00:00:57.93 bitrate= 579.2kbits/s dup=0 drop=78 speed=0.989x elapsed=0:00:58.59    frame= 1665 fps= 28 q=8.0 size=    4096KiB time=00:00:58.50 bitrate= 573.6kbits/s dup=0 drop=78 speed=0.99x elapsed=0:00:59.11    frame= 1681 fps= 28 q=8.0 size=    4096KiB time=00:00:59.03 bitrate= 568.4kbits/s dup=0 drop=78 speed=0.99x elapsed=0:00:59.62    frame= 1694 fps= 28 q=7.0 size=    4096KiB time=00:00:59.46 bitrate= 564.3kbits/s dup=0 drop=79 speed=0.989x elapsed=0:01:00.14    frame= 1709 fps= 28 q=8.0 size=    4096KiB time=00:01:00.00 bitrate= 559.2kbits/s dup=0 drop=80 speed=0.989x elapsed=0:01:00.66    frame= 1721 fps= 28 q=8.0 size=    4096KiB time=00:01:00.43 bitrate= 555.2kbits/s dup=0 drop=82 speed=0.988x elapsed=0:01:01.17    frame= 1736 fps= 28 q=17.0 size=    4096KiB time=00:01:01.00 bitrate= 550.1kbits/s dup=0 drop=83 speed=0.989x elapsed=0:01:01.68    frame= 1751 fps= 28 q=8.0 size=    4096KiB time=00:01:01.56 bitrate= 545.0kbits/s dup=0 drop=84 speed=0.99x elapsed=0:01:02.20    frame= 1765 fps= 28 q=7.0 size=    4608KiB time=00:01:02.06 bitrate= 608.2kbits/s dup=0 drop=85 speed=0.99x elapsed=0:01:02.72    frame= 1779 fps= 28 q=8.0 size=    4608KiB time=00:01:02.56 bitrate= 603.3kbits/s dup=0 drop=87 speed=0.989x elapsed=0:01:03.23    frame= 1793 fps= 28 q=8.0 size=    4608KiB time=00:01:03.10 bitrate= 598.2kbits/s dup=0 drop=88 speed=0.99x elapsed=0:01:03.74    frame= 1806 fps= 28 q=8.0 size=    4608KiB time=00:01:03.53 bitrate= 594.2kbits/s dup=0 drop=90 speed=0.989x elapsed=0:01:04.26    frame= 1822 fps= 28 q=8.0 size=    4608KiB time=00:01:04.16 bitrate= 588.3kbits/s dup=0 drop=90 speed=0.99x elapsed=0:01:04.79    frame= 1836 fps= 28 q=8.0 size=    4608KiB time=00:01:04.63 bitrate= 584.1kbits/s dup=0 drop=92 speed=0.989x elapsed=0:01:05.32    frame= 1850 fps= 28 q=8.0 size=    4608KiB time=00:01:05.13 bitrate= 579.6kbits/s dup=0 drop=93 speed=0.989x elapsed=0:01:05.83    frame= 1864 fps= 28 q=8.0 size=    4608KiB time=00:01:05.66 bitrate= 574.9kbits/s dup=0 drop=94 speed=0.99x elapsed=0:01:06.34    frame= 1878 fps= 28 q=8.0 size=    4608KiB time=00:01:06.16 bitrate= 570.5kbits/s dup=0 drop=96 speed=0.99x elapsed=0:01:06.86    frame= 1894 fps= 28 q=8.0 size=    4608KiB time=00:01:06.76 bitrate= 565.4kbits/s dup=0 drop=96 speed=0.991x elapsed=0:01:07.38    frame= 1910 fps= 28 q=8.0 size=    4608KiB time=00:01:07.30 bitrate= 560.9kbits/s dup=0 drop=96 speed=0.991x elapsed=0:01:07.91    frame= 1924 fps= 28 q=8.0 size=    4608KiB time=00:01:07.76 bitrate= 557.0kbits/s dup=0 drop=97 speed=0.99x elapsed=0:01:08.42    frame= 1939 fps= 28 q=8.0 size=    4608KiB time=00:01:08.30 bitrate= 552.7kbits/s dup=0 drop=98 speed=0.991x elapsed=0:01:08.94    frame= 1953 fps= 28 q=8.0 size=    4608KiB time=00:01:08.80 bitrate= 548.7kbits/s dup=0 drop=99 speed=0.991x elapsed=0:01:09.45    frame= 1969 fps= 28 q=8.0 size=    4608KiB time=00:01:09.36 bitrate= 544.2kbits/s dup=0 drop=99 speed=0.991x elapsed=0:01:09.96    frame= 1984 fps= 28 q=5.0 size=    4608KiB time=00:01:09.86 bitrate= 540.3kbits/s dup=0 drop=99 speed=0.991x elapsed=0:01:10.48    frame= 1998 fps= 28 q=7.0 size=    4608KiB time=00:01:10.33 bitrate= 536.7kbits/s dup=0 drop=100 speed=0.99x elapsed=0:01:11.01    frame= 2012 fps= 28 q=8.0 size=    5120KiB time=00:01:10.80 bitrate= 592.4kbits/s dup=0 drop=101 speed=0.99x elapsed=0:01:11.53    frame= 2026 fps= 28 q=8.0 size=    5120KiB time=00:01:11.33 bitrate= 588.0kbits/s dup=0 drop=103 speed=0.99x elapsed=0:01:12.05    frame= 2041 fps= 28 q=8.0 size=    5120KiB time=00:01:11.93 bitrate= 583.1kbits/s dup=0 drop=104 speed=0.991x elapsed=0:01:12.56    frame= 2055 fps= 28 q=8.0 size=    5120KiB time=00:01:12.43 bitrate= 579.1kbits/s dup=0 drop=105 speed=0.991x elapsed=0:01:13.07    frame= 2070 fps= 28 q=8.0 size=    5120KiB time=00:01:12.96 bitrate= 574.8kbits/s dup=0 drop=106 speed=0.991x elapsed=0:01:13.59    frame= 2084 fps= 28 q=9.0 size=    5120KiB time=00:01:13.46 bitrate= 570.9kbits/s dup=0 drop=106 speed=0.991x elapsed=0:01:14.12    frame= 2100 fps= 28 q=8.0 size=    5120KiB time=00:01:14.00 bitrate= 566.8kbits/s dup=0 drop=107 speed=0.991x elapsed=0:01:14.64    frame= 2116 fps= 28 q=8.0 size=    5120KiB time=00:01:14.56 bitrate= 562.5kbits/s dup=0 drop=107 speed=0.992x elapsed=0:01:15.15    frame= 2130 fps= 28 q=8.0 size=    5120KiB time=00:01:15.03 bitrate= 559.0kbits/s dup=0 drop=107 speed=0.992x elapsed=0:01:15.67    frame= 2146 fps= 28 q=8.0 size=    5120KiB time=00:01:15.56 bitrate= 555.1kbits/s dup=0 drop=107 speed=0.992x elapsed=0:01:16.18    frame= 2160 fps= 28 q=8.0 size=    5120KiB time=00:01:16.03 bitrate= 551.6kbits/s dup=0 drop=108 speed=0.991x elapsed=0:01:16.69    frame= 2176 fps= 28 q=8.0 size=    5120KiB time=00:01:16.60 bitrate= 547.6kbits/s dup=0 drop=108 speed=0.992x elapsed=0:01:17.21    frame= 2192 fps= 28 q=8.0 size=    5120KiB time=00:01:17.13 bitrate= 543.8kbits/s dup=0 drop=108 speed=0.992x elapsed=0:01:17.74    frame= 2207 fps= 28 q=8.0 size=    5120KiB time=00:01:17.63 bitrate= 540.3kbits/s dup=0 drop=109 speed=0.992x elapsed=0:01:18.27    frame= 2220 fps= 28 q=8.0 size=    5120KiB time=00:01:18.06 bitrate= 537.3kbits/s dup=0 drop=111 speed=0.991x elapsed=0:01:18.79    frame= 2234 fps= 28 q=5.0 size=    5120KiB time=00:01:18.60 bitrate= 533.6kbits/s dup=0 drop=113 speed=0.991x elapsed=0:01:19.32    frame= 2249 fps= 28 q=8.0 size=    5120KiB time=00:01:19.20 bitrate= 529.6kbits/s dup=0 drop=114 speed=0.992x elapsed=0:01:19.84    frame= 2264 fps= 28 q=7.0 size=    5888KiB time=00:01:19.73 bitrate= 605.0kbits/s dup=0 drop=114 speed=0.992x elapsed=0:01:20.37    frame= 2277 fps= 28 q=8.0 size=    5888KiB time=00:01:20.16 bitrate= 601.7kbits/s dup=0 drop=117 speed=0.991x elapsed=0:01:20.89    frame= 2291 fps= 28 q=8.0 size=    5888KiB time=00:01:20.73 bitrate= 597.5kbits/s dup=0 drop=118 speed=0.992x elapsed=0:01:21.41    frame= 2306 fps= 28 q=8.0 size=    5888KiB time=00:01:21.30 bitrate= 593.3kbits/s dup=0 drop=118 speed=0.992x elapsed=0:01:21.93    frame= 2319 fps= 28 q=8.0 size=    5888KiB time=00:01:21.73 bitrate= 590.1kbits/s dup=0 drop=120 speed=0.991x elapsed=0:01:22.43    frame= 2334 fps= 28 q=8.0 size=    5888KiB time=00:01:22.30 bitrate= 586.1kbits/s dup=0 drop=121 speed=0.992x elapsed=0:01:22.96    frame= 2349 fps= 28 q=8.0 size=    5888KiB time=00:01:22.83 bitrate= 582.3kbits/s dup=0 drop=122 speed=0.992x elapsed=0:01:23.48    frame= 2364 fps= 28 q=8.0 size=    5888KiB time=00:01:23.36 bitrate= 578.6kbits/s dup=0 drop=122 speed=0.992x elapsed=0:01:24.00    frame= 2380 fps= 28 q=8.0 size=    5888KiB time=00:01:23.90 bitrate= 574.9kbits/s dup=0 drop=123 speed=0.992x elapsed=0:01:24.56    frame= 2395 fps= 28 q=8.0 size=    5888KiB time=00:01:24.43 bitrate= 571.3kbits/s dup=0 drop=124 speed=0.992x elapsed=0:01:25.07    frame= 2408 fps= 28 q=8.0 size=    5888KiB time=00:01:24.90 bitrate= 568.1kbits/s dup=0 drop=125 speed=0.992x elapsed=0:01:25.60    frame= 2424 fps= 28 q=7.0 size=    5888KiB time=00:01:25.50 bitrate= 564.2kbits/s dup=0 drop=126 speed=0.993x elapsed=0:01:26.13    frame= 2439 fps= 28 q=8.0 size=    5888KiB time=00:01:26.00 bitrate= 560.9kbits/s dup=0 drop=127 speed=0.992x elapsed=0:01:26.66    frame= 2453 fps= 28 q=8.0 size=    5888KiB time=00:01:26.53 bitrate= 557.4kbits/s dup=0 drop=129 speed=0.993x elapsed=0:01:27.17    frame= 2467 fps= 28 q=8.0 size=    5888KiB time=00:01:27.00 bitrate= 554.4kbits/s dup=0 drop=130 speed=0.992x elapsed=0:01:27.68    frame= 2482 fps= 28 q=8.0 size=    5888KiB time=00:01:27.56 bitrate= 550.8kbits/s dup=0 drop=130 speed=0.993x elapsed=0:01:28.21    frame= 2496 fps= 28 q=8.0 size=    5888KiB time=00:01:28.03 bitrate= 547.9kbits/s dup=0 drop=131 speed=0.992x elapsed=0:01:28.71    frame= 2510 fps= 28 q=8.0 size=    6400KiB time=00:01:28.53 bitrate= 592.2kbits/s dup=0 drop=133 speed=0.992x elapsed=0:01:29.23    frame= 2526 fps= 28 q=8.0 size=    6400KiB time=00:01:29.13 bitrate= 588.2kbits/s dup=0 drop=133 speed=0.993x elapsed=0:01:29.75    frame= 2540 fps= 28 q=8.0 size=    6400KiB time=00:01:29.60 bitrate= 585.1kbits/s dup=0 drop=135 speed=0.993x elapsed=0:01:30.27    frame= 2555 fps= 28 q=8.0 size=    6400KiB time=00:01:30.16 bitrate= 581.5kbits/s dup=0 drop=135 speed=0.993x elapsed=0:01:30.79    frame= 2569 fps= 28 q=8.0 size=    6400KiB time=00:01:30.63 bitrate= 578.5kbits/s dup=0 drop=135 speed=0.993x elapsed=0:01:31.30    frame= 2583 fps= 28 q=8.0 size=    6400KiB time=00:01:31.10 bitrate= 575.5kbits/s dup=0 drop=136 speed=0.992x elapsed=0:01:31.81    frame= 2598 fps= 28 q=8.0 size=    6400KiB time=00:01:31.70 bitrate= 571.7kbits/s dup=0 drop=138 speed=0.993x elapsed=0:01:32.33    frame= 2613 fps= 28 q=8.0 size=    6400KiB time=00:01:32.23 bitrate= 568.4kbits/s dup=0 drop=138 speed=0.993x elapsed=0:01:32.85    frame= 2628 fps= 28 q=8.0 size=    6400KiB time=00:01:32.73 bitrate= 565.4kbits/s dup=0 drop=139 speed=0.993x elapsed=0:01:33.36    frame= 2643 fps= 28 q=8.0 size=    6400KiB time=00:01:33.26 bitrate= 562.1kbits/s dup=0 drop=139 speed=0.993x elapsed=0:01:33.89    frame= 2657 fps= 28 q=8.0 size=    6400KiB time=00:01:33.73 bitrate= 559.3kbits/s dup=0 drop=140 speed=0.993x elapsed=0:01:34.40    frame= 2670 fps= 28 q=7.0 size=    6400KiB time=00:01:34.20 bitrate= 556.6kbits/s dup=0 drop=142 speed=0.992x elapsed=0:01:34.93    frame= 2687 fps= 28 q=8.0 size=    6400KiB time=00:01:34.83 bitrate= 552.9kbits/s dup=0 drop=143 speed=0.993x elapsed=0:01:35.49    frame= 2702 fps= 28 q=8.0 size=    6400KiB time=00:01:35.36 bitrate= 549.8kbits/s dup=0 drop=144 speed=0.993x elapsed=0:01:36.00    frame= 2717 fps= 28 q=9.0 size=    6400KiB time=00:01:35.90 bitrate= 546.7kbits/s dup=0 drop=144 speed=0.993x elapsed=0:01:36.53    frame= 2732 fps= 28 q=10.0 size=    6400KiB time=00:01:36.43 bitrate= 543.7kbits/s dup=0 drop=145 speed=0.994x elapsed=0:01:37.04    frame= 2746 fps= 28 q=7.0 size=    6400KiB time=00:01:36.90 bitrate= 541.1kbits/s dup=0 drop=145 speed=0.993x elapsed=0:01:37.56    frame= 2762 fps= 28 q=8.0 size=    6912KiB time=00:01:37.43 bitrate= 581.2kbits/s dup=0 drop=146 speed=0.993x elapsed=0:01:38.08    frame= 2777 fps= 28 q=8.0 size=    6912KiB time=00:01:37.96 bitrate= 578.0kbits/s dup=0 drop=146 speed=0.994x elapsed=0:01:38.60    frame= 2790 fps= 28 q=8.0 size=    6912KiB time=00:01:38.40 bitrate= 575.4kbits/s dup=0 drop=148 speed=0.993x elapsed=0:01:39.11    frame= 2807 fps= 28 q=8.0 size=    6912KiB time=00:01:39.03 bitrate= 571.8kbits/s dup=0 drop=148 speed=0.994x elapsed=0:01:39.63    frame= 2822 fps= 28 q=8.0 size=    6912KiB time=00:01:39.53 bitrate= 568.9kbits/s dup=0 drop=148 speed=0.994x elapsed=0:01:40.16    frame= 2836 fps= 28 q=7.0 size=    6912KiB time=00:01:40.00 bitrate= 566.2kbits/s dup=0 drop=149 speed=0.993x elapsed=0:01:40.68    frame= 2851 fps= 28 q=8.0 size=    6912KiB time=00:01:40.53 bitrate= 563.2kbits/s dup=0 drop=150 speed=0.994x elapsed=0:01:41.18    frame= 2864 fps= 28 q=8.0 size=    6912KiB time=00:01:41.00 bitrate= 560.6kbits/s dup=0 drop=151 speed=0.993x elapsed=0:01:41.70    frame= 2880 fps= 28 q=8.0 size=    6912KiB time=00:01:41.60 bitrate= 557.3kbits/s dup=0 drop=151 speed=0.994x elapsed=0:01:42.22    frame= 2895 fps= 28 q=8.0 size=    6912KiB time=00:01:42.10 bitrate= 554.6kbits/s dup=0 drop=151 speed=0.994x elapsed=0:01:42.74    frame= 2908 fps= 28 q=8.0 size=    6912KiB time=00:01:42.53 bitrate= 552.2kbits/s dup=0 drop=154 speed=0.993x elapsed=0:01:43.25    frame= 2923 fps= 28 q=8.0 size=    6912KiB time=00:01:43.13 bitrate= 549.0kbits/s dup=0 drop=154 speed=0.994x elapsed=0:01:43.77    frame= 2939 fps= 28 q=8.0 size=    6912KiB time=00:01:43.66 bitrate= 546.2kbits/s dup=0 drop=154 speed=0.994x elapsed=0:01:44.28    frame= 2953 fps= 28 q=8.0 size=    6912KiB time=00:01:44.13 bitrate= 543.8kbits/s dup=0 drop=156 speed=0.994x elapsed=0:01:44.80    frame= 2968 fps= 28 q=8.0 size=    6912KiB time=00:01:44.70 bitrate= 540.8kbits/s dup=0 drop=156 speed=0.994x elapsed=0:01:45.31    frame= 2983 fps= 28 q=8.0 size=    6912KiB time=00:01:45.20 bitrate= 538.2kbits/s dup=0 drop=156 speed=0.994x elapsed=0:01:45.82    frame= 2998 fps= 28 q=8.0 size=    6912KiB time=00:01:45.70 bitrate= 535.7kbits/s dup=0 drop=156 speed=0.994x elapsed=0:01:46.34    frame= 3012 fps= 28 q=8.0 size=    7680KiB time=00:01:46.16 bitrate= 592.6kbits/s dup=0 drop=158 speed=0.994x elapsed=0:01:46.86    frame= 3026 fps= 28 q=8.0 size=    7680KiB time=00:01:46.70 bitrate= 589.6kbits/s dup=0 drop=159 speed=0.994x elapsed=0:01:47.38    frame= 3041 fps= 28 q=9.0 size=    7680KiB time=00:01:47.20 bitrate= 586.9kbits/s dup=0 drop=160 speed=0.994x elapsed=0:01:47.90    frame= 3056 fps= 28 q=11.0 size=    7680KiB time=00:01:47.76 bitrate= 583.8kbits/s dup=0 drop=160 speed=0.994x elapsed=0:01:48.42    frame= 3071 fps= 28 q=8.0 size=    7680KiB time=00:01:48.30 bitrate= 580.9kbits/s dup=0 drop=161 speed=0.994x elapsed=0:01:48.93    frame= 3085 fps= 28 q=8.0 size=    7680KiB time=00:01:48.76 bitrate= 578.4kbits/s dup=0 drop=162 speed=0.994x elapsed=0:01:49.46    frame= 3101 fps= 28 q=8.0 size=    7680KiB time=00:01:49.36 bitrate= 575.3kbits/s dup=0 drop=162 speed=0.994x elapsed=0:01:49.99    frame= 3117 fps= 28 q=8.0 size=    7680KiB time=00:01:49.90 bitrate= 572.5kbits/s dup=0 drop=162 speed=0.995x elapsed=0:01:50.50    frame= 3132 fps= 28 q=8.0 size=    7680KiB time=00:01:50.40 bitrate= 569.9kbits/s dup=0 drop=163 speed=0.994x elapsed=0:01:51.02    frame= 3145 fps= 28 q=8.0 size=    7680KiB time=00:01:50.86 bitrate= 567.5kbits/s dup=0 drop=164 speed=0.994x elapsed=0:01:51.54    frame= 3160 fps= 28 q=8.0 size=    7680KiB time=00:01:51.43 bitrate= 564.6kbits/s dup=0 drop=165 speed=0.994x elapsed=0:01:52.06    frame= 3174 fps= 28 q=8.0 size=    7680KiB time=00:01:51.93 bitrate= 562.1kbits/s dup=0 drop=166 speed=0.994x elapsed=0:01:52.58    frame= 3189 fps= 28 q=8.0 size=    7680KiB time=00:01:52.46 bitrate= 559.4kbits/s dup=0 drop=166 speed=0.994x elapsed=0:01:53.10    frame= 3205 fps= 28 q=8.0 size=    7680KiB time=00:01:53.00 bitrate= 556.8kbits/s dup=0 drop=167 speed=0.994x elapsed=0:01:53.62    frame= 3219 fps= 28 q=8.0 size=    7680KiB time=00:01:53.50 bitrate= 554.3kbits/s dup=0 drop=168 speed=0.994x elapsed=0:01:54.13    frame= 3234 fps= 28 q=5.0 size=    7680KiB time=00:01:54.03 bitrate= 551.7kbits/s dup=0 drop=169 speed=0.994x elapsed=0:01:54.66    frame= 3249 fps= 28 q=8.0 size=    7680KiB time=00:01:54.56 bitrate= 549.2kbits/s dup=0 drop=169 speed=0.995x elapsed=0:01:55.18    frame= 3263 fps= 28 q=8.0 size=    8448KiB time=00:01:55.03 bitrate= 601.6kbits/s dup=0 drop=170 speed=0.994x elapsed=0:01:55.71    frame= 3277 fps= 28 q=8.0 size=    8448KiB time=00:01:55.53 bitrate= 599.0kbits/s dup=0 drop=172 speed=0.994x elapsed=0:01:56.21    frame= 3293 fps= 28 q=8.0 size=    8448KiB time=00:01:56.10 bitrate= 596.1kbits/s dup=0 drop=172 speed=0.994x elapsed=0:01:56.74    frame= 3308 fps= 28 q=8.0 size=    8448KiB time=00:01:56.63 bitrate= 593.4kbits/s dup=0 drop=172 speed=0.995x elapsed=0:01:57.25    frame= 3322 fps= 28 q=8.0 size=    8448KiB time=00:01:57.10 bitrate= 591.0kbits/s dup=0 drop=173 speed=0.994x elapsed=0:01:57.77    frame= 3337 fps= 28 q=8.0 size=    8448KiB time=00:01:57.63 bitrate= 588.3kbits/s dup=0 drop=174 speed=0.994x elapsed=0:01:58.30    frame= 3353 fps= 28 q=8.0 size=    8448KiB time=00:01:58.20 bitrate= 585.5kbits/s dup=0 drop=174 speed=0.995x elapsed=0:01:58.83    frame= 3368 fps= 28 q=8.0 size=    8448KiB time=00:01:58.70 bitrate= 583.0kbits/s dup=0 drop=175 speed=0.994x elapsed=0:01:59.35    frame= 3384 fps= 28 q=8.0 size=    8448KiB time=00:01:59.26 bitrate= 580.3kbits/s dup=0 drop=175 speed=0.995x elapsed=0:01:59.88    frame= 3398 fps= 28 q=8.0 size=    8448KiB time=00:01:59.73 bitrate= 578.0kbits/s dup=0 drop=176 speed=0.994x elapsed=0:02:00.40    frame= 3413 fps= 28 q=7.0 size=    8448KiB time=00:02:00.26 bitrate= 575.4kbits/s dup=0 drop=178 speed=0.994x elapsed=0:02:00.96    frame= 3428 fps= 28 q=8.0 size=    8448KiB time=00:02:00.80 bitrate= 572.9kbits/s dup=0 drop=178 speed=0.994x elapsed=0:02:01.47    frame= 3442 fps= 28 q=8.0 size=    8448KiB time=00:02:01.30 bitrate= 570.5kbits/s dup=0 drop=179 speed=0.994x elapsed=0:02:01.99    frame= 3456 fps= 28 q=8.0 size=    8448KiB time=00:02:01.83 bitrate= 568.0kbits/s dup=0 drop=181 speed=0.994x elapsed=0:02:02.52    frame= 3470 fps= 28 q=8.0 size=    8448KiB time=00:02:02.33 bitrate= 565.7kbits/s dup=0 drop=182 speed=0.994x elapsed=0:02:03.03    frame= 3486 fps= 28 q=18.0 size=    8448KiB time=00:02:02.93 bitrate= 563.0kbits/s dup=0 drop=182 speed=0.995x elapsed=0:02:03.54    frame= 3501 fps= 28 q=8.0 size=    8448KiB time=00:02:03.43 bitrate= 560.7kbits/s dup=0 drop=182 speed=0.995x elapsed=0:02:04.05    frame= 3516 fps= 28 q=9.0 size=    8960KiB time=00:02:03.93 bitrate= 592.3kbits/s dup=0 drop=183 speed=0.995x elapsed=0:02:04.57    frame= 3530 fps= 28 q=7.0 size=    8960KiB time=00:02:04.43 bitrate= 589.9kbits/s dup=0 drop=183 speed=0.995x elapsed=0:02:05.09    frame= 3545 fps= 28 q=8.0 size=    8960KiB time=00:02:04.93 bitrate= 587.5kbits/s dup=0 drop=185 speed=0.995x elapsed=0:02:05.61    frame= 3559 fps= 28 q=8.0 size=    8960KiB time=00:02:05.46 bitrate= 585.0kbits/s dup=0 drop=186 speed=0.995x elapsed=0:02:06.13    frame= 3574 fps= 28 q=8.0 size=    8960KiB time=00:02:06.00 bitrate= 582.5kbits/s dup=0 drop=187 speed=0.995x elapsed=0:02:06.65    frame= 3588 fps= 28 q=8.0 size=    8960KiB time=00:02:06.50 bitrate= 580.2kbits/s dup=0 drop=188 speed=0.995x elapsed=0:02:07.17    frame= 3602 fps= 28 q=8.0 size=    8960KiB time=00:02:07.00 bitrate= 578.0kbits/s dup=0 drop=190 speed=0.995x elapsed=0:02:07.69    frame= 3619 fps= 28 q=8.0 size=    8960KiB time=00:02:07.63 bitrate= 575.1kbits/s dup=0 drop=190 speed=0.995x elapsed=0:02:08.22    frame= 3633 fps= 28 q=8.0 size=    8960KiB time=00:02:08.10 bitrate= 573.0kbits/s dup=0 drop=190 speed=0.995x elapsed=0:02:08.73    frame= 3648 fps= 28 q=8.0 size=    8960KiB time=00:02:08.60 bitrate= 570.8kbits/s dup=0 drop=190 speed=0.995x elapsed=0:02:09.25    frame= 3663 fps= 28 q=8.0 size=    8960KiB time=00:02:09.10 bitrate= 568.6kbits/s dup=0 drop=191 speed=0.995x elapsed=0:02:09.76    frame= 3677 fps= 28 q=8.0 size=    8960KiB time=00:02:09.60 bitrate= 566.4kbits/s dup=0 drop=193 speed=0.995x elapsed=0:02:10.28    frame= 3691 fps= 28 q=8.0 size=    8960KiB time=00:02:10.10 bitrate= 564.2kbits/s dup=0 drop=194 speed=0.995x elapsed=0:02:10.80    frame= 3706 fps= 28 q=8.0 size=    8960KiB time=00:02:10.66 bitrate= 561.7kbits/s dup=0 drop=195 speed=0.995x elapsed=0:02:11.32    frame= 3720 fps= 28 q=8.0 size=    8960KiB time=00:02:11.16 bitrate= 559.6kbits/s dup=0 drop=196 speed=0.995x elapsed=0:02:11.84    frame= 3734 fps= 28 q=5.0 size=    8960KiB time=00:02:11.70 bitrate= 557.3kbits/s dup=0 drop=197 speed=0.995x elapsed=0:02:12.36    frame= 3750 fps= 28 q=8.0 size=    8960KiB time=00:02:12.26 bitrate= 554.9kbits/s dup=0 drop=197 speed=0.995x elapsed=0:02:12.88    frame= 3765 fps= 28 q=8.0 size=    9472KiB time=00:02:12.76 bitrate= 584.4kbits/s dup=0 drop=197 speed=0.995x elapsed=0:02:13.40    frame= 3780 fps= 28 q=8.0 size=    9472KiB time=00:02:13.26 bitrate= 582.3kbits/s dup=0 drop=198 speed=0.995x elapsed=0:02:13.92    frame= 3794 fps= 28 q=8.0 size=    9472KiB time=00:02:13.76 bitrate= 580.1kbits/s dup=0 drop=200 speed=0.995x elapsed=0:02:14.43    frame= 3809 fps= 28 q=8.0 size=    9472KiB time=00:02:14.33 bitrate= 577.6kbits/s dup=0 drop=200 speed=0.995x elapsed=0:02:14.95    frame= 3822 fps= 28 q=8.0 size=    9472KiB time=00:02:14.80 bitrate= 575.6kbits/s dup=0 drop=202 speed=0.995x elapsed=0:02:15.47    frame= 3837 fps= 28 q=8.0 size=    9472KiB time=00:02:15.33 bitrate= 573.4kbits/s dup=0 drop=203 speed=0.995x elapsed=0:02:15.99    frame= 3851 fps= 28 q=8.0 size=    9472KiB time=00:02:15.83 bitrate= 571.3kbits/s dup=0 drop=205 speed=0.995x elapsed=0:02:16.50    frame= 3865 fps= 28 q=8.0 size=    9472KiB time=00:02:16.36 bitrate= 569.0kbits/s dup=0 drop=206 speed=0.995x elapsed=0:02:17.03    frame= 3879 fps= 28 q=8.0 size=    9472KiB time=00:02:16.90 bitrate= 566.8kbits/s dup=0 drop=207 speed=0.995x elapsed=0:02:17.54    frame= 3894 fps= 28 q=8.0 size=    9472KiB time=00:02:17.43 bitrate= 564.6kbits/s dup=0 drop=207 speed=0.995x elapsed=0:02:18.06    frame= 3908 fps= 28 q=8.0 size=    9472KiB time=00:02:17.93 bitrate= 562.6kbits/s dup=0 drop=207 speed=0.995x elapsed=0:02:18.58    frame= 3922 fps= 28 q=8.0 size=    9472KiB time=00:02:18.40 bitrate= 560.7kbits/s dup=0 drop=209 speed=0.995x elapsed=0:02:19.09    frame= 3936 fps= 28 q=8.0 size=    9472KiB time=00:02:18.93 bitrate= 558.5kbits/s dup=0 drop=210 speed=0.995x elapsed=0:02:19.60    frame= 3952 fps= 28 q=8.0 size=    9472KiB time=00:02:19.50 bitrate= 556.2kbits/s dup=0 drop=210 speed=0.996x elapsed=0:02:20.12    frame= 3965 fps= 28 q=8.0 size=    9472KiB time=00:02:19.93 bitrate= 554.5kbits/s dup=0 drop=212 speed=0.995x elapsed=0:02:20.64    frame= 3980 fps= 28 q=8.0 size=    9984KiB time=00:02:20.50 bitrate= 582.1kbits/s dup=0 drop=212 speed=0.995x elapsed=0:02:21.16    frame= 3993 fps= 28 q=8.0 size=    9984KiB time=00:02:20.96 bitrate= 580.2kbits/s dup=0 drop=214 speed=0.995x elapsed=0:02:21.68    frame= 4008 fps= 28 q=8.0 size=   10496KiB time=00:02:21.50 bitrate= 607.7kbits/s dup=0 drop=215 speed=0.995x elapsed=0:02:22.23    frame= 4024 fps= 28 q=8.0 size=   10496KiB time=00:02:22.13 bitrate= 605.0kbits/s dup=0 drop=215 speed=0.996x elapsed=0:02:22.75    frame= 4038 fps= 28 q=8.0 size=   10496KiB time=00:02:22.60 bitrate= 603.0kbits/s dup=0 drop=216 speed=0.995x elapsed=0:02:23.26    frame= 4053 fps= 28 q=8.0 size=   10496KiB time=00:02:23.13 bitrate= 600.7kbits/s dup=0 drop=216 speed=0.995x elapsed=0:02:23.78    frame= 4069 fps= 28 q=8.0 size=   10496KiB time=00:02:23.66 bitrate= 598.5kbits/s dup=0 drop=217 speed=0.996x elapsed=0:02:24.30    frame= 4085 fps= 28 q=8.0 size=   10496KiB time=00:02:24.23 bitrate= 596.1kbits/s dup=0 drop=217 speed=0.996x elapsed=0:02:24.83    frame= 4099 fps= 28 q=8.0 size=   10496KiB time=00:02:24.70 bitrate= 594.2kbits/s dup=0 drop=217 speed=0.996x elapsed=0:02:25.34    frame= 4113 fps= 28 q=8.0 size=   10496KiB time=00:02:25.20 bitrate= 592.2kbits/s dup=0 drop=219 speed=0.995x elapsed=0:02:25.86    frame= 4128 fps= 28 q=8.0 size=   10496KiB time=00:02:25.73 bitrate= 590.0kbits/s dup=0 drop=219 speed=0.996x elapsed=0:02:26.38    frame= 4142 fps= 28 q=8.0 size=   10496KiB time=00:02:26.23 bitrate= 588.0kbits/s dup=0 drop=219 speed=0.995x elapsed=0:02:26.90    frame= 4157 fps= 28 q=9.0 size=   10496KiB time=00:02:26.73 bitrate= 586.0kbits/s dup=0 drop=219 speed=0.995x elapsed=0:02:27.42    frame= 4171 fps= 28 q=8.0 size=   10496KiB time=00:02:27.30 bitrate= 583.7kbits/s dup=0 drop=219 speed=0.996x elapsed=0:02:27.93    frame= 4184 fps= 28 q=13.0 size=   10496KiB time=00:02:27.73 bitrate= 582.0kbits/s dup=0 drop=219 speed=0.995x elapsed=0:02:28.45    frame= 4199 fps= 28 q=15.0 size=   11008KiB time=00:02:28.30 bitrate= 608.1kbits/s dup=0 drop=219 speed=0.995x elapsed=0:02:28.97    frame= 4213 fps= 28 q=8.0 size=   11264KiB time=00:02:28.80 bitrate= 620.1kbits/s dup=0 drop=219 speed=0.995x elapsed=0:02:29.49    frame= 4228 fps= 28 q=8.0 size=   11776KiB time=00:02:29.36 bitrate= 645.9kbits/s dup=0 drop=219 speed=0.996x elapsed=0:02:30.00    frame= 4242 fps= 28 q=9.0 size=   12032KiB time=00:02:29.86 bitrate= 657.7kbits/s dup=0 drop=219 speed=0.996x elapsed=0:02:30.52    frame= 4255 fps= 28 q=11.0 size=   12544KiB time=00:02:30.30 bitrate= 683.7kbits/s dup=0 drop=220 speed=0.995x elapsed=0:02:31.03    frame= 4270 fps= 28 q=8.0 size=   12544KiB time=00:02:30.86 bitrate= 681.1kbits/s dup=0 drop=220 speed=0.995x elapsed=0:02:31.55    frame= 4286 fps= 28 q=8.0 size=   12800KiB time=00:02:31.46 bitrate= 692.3kbits/s dup=0 drop=220 speed=0.996x elapsed=0:02:32.06    frame= 4301 fps= 28 q=9.0 size=   13056KiB time=00:02:31.96 bitrate= 703.8kbits/s dup=0 drop=220 speed=0.996x elapsed=0:02:32.58    frame= 4314 fps= 28 q=8.0 size=   13056KiB time=00:02:32.40 bitrate= 701.8kbits/s dup=0 drop=222 speed=0.995x elapsed=0:02:33.09    frame= 4328 fps= 28 q=17.0 size=   13056KiB time=00:02:32.93 bitrate= 699.4kbits/s dup=0 drop=222 speed=0.996x elapsed=0:02:33.61    frame= 4342 fps= 28 q=8.0 size=   13568KiB time=00:02:33.43 bitrate= 724.4kbits/s dup=0 drop=223 speed=0.996x elapsed=0:02:34.12    frame= 4357 fps= 28 q=8.0 size=   14336KiB time=00:02:34.00 bitrate= 762.6kbits/s dup=0 drop=223 speed=0.996x elapsed=0:02:34.63    frame= 4373 fps= 28 q=8.0 size=   14336KiB time=00:02:34.53 bitrate= 760.0kbits/s dup=0 drop=223 speed=0.996x elapsed=0:02:35.16    frame= 4385 fps= 28 q=8.0 size=   14336KiB time=00:02:34.93 bitrate= 758.0kbits/s dup=0 drop=224 speed=0.995x elapsed=0:02:35.67    frame= 4399 fps= 28 q=8.0 size=   14336KiB time=00:02:35.46 bitrate= 755.4kbits/s dup=0 drop=225 speed=0.995x elapsed=0:02:36.18    frame= 4413 fps= 28 q=8.0 size=   14336KiB time=00:02:36.00 bitrate= 752.8kbits/s dup=0 drop=226 speed=0.996x elapsed=0:02:36.70    frame= 4427 fps= 28 q=7.0 size=   14336KiB time=00:02:36.53 bitrate= 750.3kbits/s dup=0 drop=227 speed=0.996x elapsed=0:02:37.21    frame= 4446 fps= 28 q=7.0 size=   14336KiB time=00:02:37.23 bitrate= 746.9kbits/s dup=0 drop=228 speed=0.996x elapsed=0:02:37.85    frame= 4458 fps= 28 q=8.0 size=   14336KiB time=00:02:37.63 bitrate= 745.0kbits/s dup=0 drop=231 speed=0.995x elapsed=0:02:38.37    frame= 4474 fps= 28 q=8.0 size=   14592KiB time=00:02:38.26 bitrate= 755.3kbits/s dup=0 drop=231 speed=0.996x elapsed=0:02:38.89    frame= 4489 fps= 28 q=11.0 size=   14592KiB time=00:02:38.76 bitrate= 752.9kbits/s dup=0 drop=231 speed=0.996x elapsed=0:02:39.41    frame= 4504 fps= 28 q=8.0 size=   14848KiB time=00:02:39.26 bitrate= 763.7kbits/s dup=0 drop=232 speed=0.996x elapsed=0:02:39.94    frame= 4519 fps= 28 q=8.0 size=   14848KiB time=00:02:39.83 bitrate= 761.0kbits/s dup=0 drop=233 speed=0.996x elapsed=0:02:40.47    frame= 4535 fps= 28 q=8.0 size=   14848KiB time=00:02:40.36 bitrate= 758.5kbits/s dup=0 drop=233 speed=0.996x elapsed=0:02:41.00    frame= 4550 fps= 28 q=8.0 size=   15104KiB time=00:02:40.90 bitrate= 769.0kbits/s dup=0 drop=233 speed=0.996x elapsed=0:02:41.51    frame= 4562 fps= 28 q=7.0 size=   15104KiB time=00:02:41.30 bitrate= 767.1kbits/s dup=0 drop=234 speed=0.995x elapsed=0:02:42.03    frame= 4578 fps= 28 q=8.0 size=   15104KiB time=00:02:41.90 bitrate= 764.3kbits/s dup=0 drop=234 speed=0.996x elapsed=0:02:42.55    frame= 4594 fps= 28 q=8.0 size=   15104KiB time=00:02:42.46 bitrate= 761.6kbits/s dup=0 drop=234 speed=0.996x elapsed=0:02:43.07    frame= 4608 fps= 28 q=8.0 size=   15104KiB time=00:02:42.93 bitrate= 759.4kbits/s dup=0 drop=235 speed=0.996x elapsed=0:02:43.58    frame= 4622 fps= 28 q=8.0 size=   15104KiB time=00:02:43.43 bitrate= 757.1kbits/s dup=0 drop=237 speed=0.996x elapsed=0:02:44.11    frame= 4637 fps= 28 q=8.0 size=   15104KiB time=00:02:44.00 bitrate= 754.5kbits/s dup=0 drop=237 speed=0.996x elapsed=0:02:44.62    frame= 4651 fps= 28 q=8.0 size=   15104KiB time=00:02:44.46 bitrate= 752.3kbits/s dup=0 drop=238 speed=0.996x elapsed=0:02:45.14    frame= 4667 fps= 28 q=8.0 size=   15104KiB time=00:02:45.03 bitrate= 749.7kbits/s dup=0 drop=238 speed=0.996x elapsed=0:02:45.65    frame= 4681 fps= 28 q=7.0 size=   15104KiB time=00:02:45.50 bitrate= 747.6kbits/s dup=0 drop=240 speed=0.996x elapsed=0:02:46.17    frame= 4694 fps= 28 q=8.0 size=   15104KiB time=00:02:45.93 bitrate= 745.7kbits/s dup=0 drop=242 speed=0.995x elapsed=0:02:46.69    frame= 4710 fps= 28 q=8.0 size=   15104KiB time=00:02:46.56 bitrate= 742.8kbits/s dup=0 drop=242 speed=0.996x elapsed=0:02:47.20    frame= 4724 fps= 28 q=8.0 size=   15104KiB time=00:02:47.06 bitrate= 740.6kbits/s dup=0 drop=243 speed=0.996x elapsed=0:02:47.71    frame= 4739 fps= 28 q=11.0 size=   15104KiB time=00:02:47.60 bitrate= 738.3kbits/s dup=0 drop=244 speed=0.996x elapsed=0:02:48.23    frame= 4752 fps= 28 q=8.0 size=   15616KiB time=00:02:48.03 bitrate= 761.3kbits/s dup=0 drop=246 speed=0.996x elapsed=0:02:48.75    frame= 4766 fps= 28 q=8.0 size=   15616KiB time=00:02:48.60 bitrate= 758.8kbits/s dup=0 drop=247 speed=0.996x elapsed=0:02:49.26    frame= 4781 fps= 28 q=8.0 size=   15616KiB time=00:02:49.13 bitrate= 756.4kbits/s dup=0 drop=248 speed=0.996x elapsed=0:02:49.78    frame= 4796 fps= 28 q=8.0 size=   15616KiB time=00:02:49.63 bitrate= 754.1kbits/s dup=0 drop=248 speed=0.996x elapsed=0:02:50.29    frame= 4811 fps= 28 q=7.0 size=   15616KiB time=00:02:50.16 bitrate= 751.8kbits/s dup=0 drop=249 speed=0.996x elapsed=0:02:50.81    frame= 4825 fps= 28 q=8.0 size=   15616KiB time=00:02:50.66 bitrate= 749.6kbits/s dup=0 drop=251 speed=0.996x elapsed=0:02:51.32    frame= 4839 fps= 28 q=8.0 size=   15616KiB time=00:02:51.20 bitrate= 747.2kbits/s dup=0 drop=251 speed=0.996x elapsed=0:02:51.84    frame= 4853 fps= 28 q=8.0 size=   15616KiB time=00:02:51.66 bitrate= 745.2kbits/s dup=0 drop=252 speed=0.996x elapsed=0:02:52.36    frame= 4868 fps= 28 q=8.0 size=   15616KiB time=00:02:52.23 bitrate= 742.8kbits/s dup=0 drop=253 speed=0.996x elapsed=0:02:52.88    frame= 4881 fps= 28 q=7.0 size=   15616KiB time=00:02:52.70 bitrate= 740.7kbits/s dup=0 drop=254 speed=0.996x elapsed=0:02:53.38    frame= 4896 fps= 28 q=8.0 size=   15616KiB time=00:02:53.23 bitrate= 738.5kbits/s dup=0 drop=256 speed=0.996x elapsed=0:02:53.91    frame= 4910 fps= 28 q=8.0 size=   15616KiB time=00:02:53.76 bitrate= 736.2kbits/s dup=0 drop=257 speed=0.996x elapsed=0:02:54.41    frame= 4924 fps= 28 q=8.0 size=   15616KiB time=00:02:54.26 bitrate= 734.1kbits/s dup=0 drop=258 speed=0.996x elapsed=0:02:54.94    frame= 4939 fps= 28 q=8.0 size=   15616KiB time=00:02:54.80 bitrate= 731.8kbits/s dup=0 drop=259 speed=0.996x elapsed=0:02:55.45    frame= 4954 fps= 28 q=8.0 size=   15616KiB time=00:02:55.30 bitrate= 729.8kbits/s dup=0 drop=260 speed=0.996x elapsed=0:02:55.97    frame= 4969 fps= 28 q=8.0 size=   15616KiB time=00:02:55.86 bitrate= 727.4kbits/s dup=0 drop=260 speed=0.996x elapsed=0:02:56.48    frame= 4983 fps= 28 q=8.0 size=   15616KiB time=00:02:56.33 bitrate= 725.5kbits/s dup=0 drop=262 speed=0.996x elapsed=0:02:57.00    frame= 4998 fps= 28 q=8.0 size=   15616KiB time=00:02:56.90 bitrate= 723.2kbits/s dup=0 drop=262 speed=0.996x elapsed=0:02:57.52    frame= 5012 fps= 28 q=8.0 size=   15872KiB time=00:02:57.36 bitrate= 733.1kbits/s dup=0 drop=263 speed=0.996x elapsed=0:02:58.02    frame= 5027 fps= 28 q=8.0 size=   15872KiB time=00:02:57.90 bitrate= 730.9kbits/s dup=0 drop=264 speed=0.996x elapsed=0:02:58.55    frame= 5043 fps= 28 q=8.0 size=   16128KiB time=00:02:58.46 bitrate= 740.3kbits/s dup=0 drop=265 speed=0.996x elapsed=0:02:59.12    frame= 5059 fps= 28 q=8.0 size=   16128KiB time=00:02:59.03 bitrate= 738.0kbits/s dup=0 drop=265 speed=0.997x elapsed=0:02:59.64    [out#0/mp4 @ 000001db34212180] video:16131KiB audio:0KiB subtitle:0KiB other streams:0KiB global headers:0KiB muxing overhead: 0.159160%
frame= 5086 fps= 28 q=-1.0 Lsize=   16157KiB time=00:02:59.96 bitrate= 735.4kbits/s dup=0 drop=266 speed=   1x elapsed=0:02:59.99    
[libx264 @ 000001db3428e200] frame I:21    Avg QP: 5.62  size:529158
[libx264 @ 000001db3428e200] frame P:5065  Avg QP: 8.25  size:  1067
[libx264 @ 000001db3428e200] mb I  I16..4: 100.0%  0.0%  0.0%
[libx264 @ 000001db3428e200] mb P  I16..4:  0.2%  0.0%  0.0%  P16..4:  0.6%  0.0%  0.0%  0.0%  0.0%    skip:99.2%
[libx264 @ 000001db3428e200] coded y,uvDC,uvAC intra: 40.9% 41.5% 40.1% inter: 0.2% 0.2% 0.1%
[libx264 @ 000001db3428e200] i16 v,h,dc,p: 56% 39%  2%  2%
[libx264 @ 000001db3428e200] i8c dc,h,v,p: 37% 39% 23%  1%
[libx264 @ 000001db3428e200] kb/s:734.11
